<?xml version="1.0" encoding="utf-8"?>
<!-- Generator: Adobe Illustrator 23.0.3, SVG Export Plug-In . SVG Version: 6.00 Build 0)  -->
<svg version="1.1" xmlns="http://www.w3.org/2000/svg" xmlns:xlink="http://www.w3.org/1999/xlink" x="0px" y="0px"
	 viewBox="0 0 19.9 19.9" style="enable-background:new 0 0 19.9 19.9;" xml:space="preserve">
<style type="text/css">
	.st0{display:none;}
	.st1{display:inline;}
	.st2{fill:#242526;}
	.st3{fill:#FFFFFF;}
	.st4{fill:none;stroke:#FFFFFF;stroke-width:0.5756;stroke-miterlimit:10;}
	.st5{fill:none;stroke:#FFFFFF;stroke-width:0.6776;stroke-miterlimit:10;}
	.st6{stroke:#FFFFFF;stroke-width:0.7224;stroke-miterlimit:10;}
</style>
<g id="Layer_1" class="st0">
	<g class="st1">
		<g>
			<path class="st2" d="M9.9,19.7c-5.4,0-9.7-4.4-9.7-9.7c0-5.4,4.4-9.7,9.7-9.7c5.4,0,9.7,4.4,9.7,9.7
				C19.7,15.3,15.3,19.7,9.9,19.7z"/>
			<path class="st3" d="M9.9,0.4c5.3,0,9.6,4.3,9.6,9.6s-4.3,9.6-9.6,9.6s-9.6-4.3-9.6-9.6S4.7,0.4,9.9,0.4 M9.9,0
				C4.4,0,0,4.4,0,9.9s4.4,9.9,9.9,9.9s9.9-4.4,9.9-9.9S15.4,0,9.9,0L9.9,0z"/>
		</g>
		<path class="st4" d="M14.7,13.9H5.1c-0.2,0-0.5-0.2-0.5-0.5v-7C4.7,6.2,4.9,6,5.1,6h9.6c0.2,0,0.5,0.2,0.5,0.5v7
			C15.2,13.7,15,13.9,14.7,13.9z"/>
		<circle class="st5" cx="9.9" cy="9.9" r="2.2"/>
	</g>
</g>
<g id="Layer_2">
	<g>
		<g>
			<path class="st2" d="M9.9,19.7c-5.4,0-9.7-4.4-9.7-9.7c0-5.4,4.4-9.7,9.7-9.7c5.4,0,9.7,4.4,9.7,9.7
				C19.7,15.3,15.3,19.7,9.9,19.7z"/>
			<path class="st3" d="M9.9,0.4c5.3,0,9.6,4.3,9.6,9.6s-4.3,9.6-9.6,9.6s-9.6-4.3-9.6-9.6S4.7,0.4,9.9,0.4 M9.9,0
				C4.4,0,0,4.4,0,9.9s4.4,9.9,9.9,9.9s9.9-4.4,9.9-9.9S15.4,0,9.9,0L9.9,0z"/>
		</g>
		<path class="st4" d="M14.7,13.9H5.1c-0.2,0-0.5-0.2-0.5-0.5v-7C4.7,6.2,4.9,6,5.1,6h9.6c0.2,0,0.5,0.2,0.5,0.5v7
			C15.2,13.7,15,13.9,14.7,13.9z"/>
		<rect x="7.3" y="4.8" class="st2" width="5.2" height="4.8"/>
		<line class="st6" x1="9.9" y1="4.4" x2="9.9" y2="7.8"/>
		<polygon class="st3" points="9.1,5.7 9.9,4.9 10.7,5.7 11.7,5.7 9.9,3.9 8.1,5.7 		"/>
		<circle class="st5" cx="9.9" cy="9.9" r="2.2"/>
	</g>
</g>
<g id="Layer_3" class="st0">
	<g class="st1">
		<g>
			<path class="st2" d="M9.9,19.7c-5.4,0-9.7-4.4-9.7-9.7c0-5.4,4.4-9.7,9.7-9.7c5.4,0,9.7,4.4,9.7,9.7
				C19.7,15.3,15.3,19.7,9.9,19.7z"/>
			<path class="st3" d="M9.9,0.4c5.3,0,9.6,4.3,9.6,9.6s-4.3,9.6-9.6,9.6s-9.6-4.3-9.6-9.6S4.7,0.4,9.9,0.4 M9.9,0
				C4.4,0,0,4.4,0,9.9s4.4,9.9,9.9,9.9s9.9-4.4,9.9-9.9S15.4,0,9.9,0L9.9,0z"/>
		</g>
		<path class="st4" d="M14.7,13.9H5.1c-0.2,0-0.5-0.2-0.5-0.5v-7C4.7,6.2,4.9,6,5.1,6h9.6c0.2,0,0.5,0.2,0.5,0.5v7
			C15.2,13.7,15,13.9,14.7,13.9z"/>
		<line class="st4" x1="12.3" y1="12.3" x2="7.5" y2="7.5"/>
		<line class="st4" x1="12.3" y1="7.5" x2="7.5" y2="12.3"/>
	</g>
</g>
</svg>
