<?xml version="1.0" encoding="utf-8"?>
<!-- Generator: Adobe Illustrator 23.0.3, SVG Export Plug-In . SVG Version: 6.00 Build 0)  -->
<svg version="1.1" id="Layer_1" xmlns="http://www.w3.org/2000/svg" xmlns:xlink="http://www.w3.org/1999/xlink" x="0px" y="0px"
	 viewBox="0 0 141.7 57.6" style="enable-background:new 0 0 141.7 57.6;" xml:space="preserve">
<style type="text/css">
	.st0{fill:#F5F4ED;}
</style>
<path class="st0" d="M3.9,0l0,31.6c0,4.5-0.2,5.9-1.5,6.3c-0.7,0.2-1.6,0.3-2,0.3c-0.2,0-0.4,0.1-0.4,0.3c0,0.3,0.3,0.4,0.8,0.4
	c2.2,0,4.3-0.1,4.7-0.1c0.4,0,2.3,0.1,4.9,0.1l0,0.3c0,4.5-0.2,5.9-1.5,6.3c-0.7,0.2-1.6,0.3-2,0.3c-0.2,0-0.4,0.1-0.4,0.3
	c0,0.3,0.3,0.4,0.8,0.4c2.2,0,4.3-0.1,4.7-0.1c0.4,0,2.4,0.1,5.2,0.1c0.6,0,0.9-0.1,0.9-0.4c0-0.2-0.1-0.3-0.4-0.3
	c-0.4,0-1.5,0-2.5-0.3c-1.3-0.4-1.8-1.7-1.9-5.7l-1.2-14c1.6,1.8,7.2,8,12.9,14.2c5.2,5.6,12.3,12.9,12.9,13.4
	c2.6,2.6,3.2,3,3.5,3.3c0.3,0.3,0.9,0.9,1.2,1.1l0-4.2l0.1-28.9c0-3,0.2-4,1.8-4.4c0.6-0.1,0.9-0.1,1.2-0.1c0.3,0,0.5-0.1,0.5-0.3
	c0-0.3-0.3-0.3-0.9-0.3c-2,0-3.7,0.1-4.2,0.1c-0.5,0-2.8-0.1-5-0.1l0-1.1c0-3,0.2-4,1.8-4.4c0.6-0.1,0.9-0.1,1.2-0.1
	c0.3,0,0.5-0.1,0.5-0.3c0-0.3-0.3-0.3-0.9-0.3c-2,0-3.7,0.1-4.2,0.1S31.7,13,29.4,13c-0.6,0-1,0-1,0.3c0,0.2,0,0.3,0.4,0.3
	c0.4,0,1.5,0,2.4,0.2c1.5,0.4,1.9,1.5,1.9,4.7l0.5,13.6c-1.6-1.6-7-7.6-11.8-12.9C14.3,11.2,3.9,0,3.9,0z M36.4,40.4L36.1,20
	c0.5,0,1.2,0.1,1.7,0.2c1.5,0.4,1.9,1.5,1.9,4.7L40.3,50c-1.6-1.6-7-7.6-11.8-12.9c-7.6-8.1-18.1-20-18.1-19.6
	c0,0.2,0.1,1.6,0.1,3.6l0,17c-0.5,0-1.1-0.1-1.7-0.3c-1.3-0.4-1.8-1.7-1.9-5.7L6.2,8.5c1.6,1.8,7.2,8,12.9,14.2
	C24.3,28.3,31.4,35.5,32,36C33.7,37.7,36.4,40.4,36.4,40.4z M66.1,19.4c-0.8,0-1.5,0.1-1.7,0.1s-1.2-0.1-2.1-0.1
	c-0.2,0-0.4,0-0.4,0.1c0,0.1,0,0.1,0.2,0.1c0.2,0,0.6,0,1,0.1c0.6,0.2,0.8,0.6,0.8,1.9L64,31.8c-0.6-0.7-2.8-3.1-4.8-5.2
	c-3.1-3.3-6.1-6.5-6.4-6.9c-0.2-0.2-0.5-0.6-0.7-0.6c-0.2,0-0.2,0.2-0.2,1l0,11.5c0,1.8-0.1,2.4-0.6,2.5c-0.3,0.1-0.7,0.1-0.8,0.1
	c-0.1,0-0.2,0-0.2,0.1c0,0.1,0.1,0.2,0.3,0.2c0.9,0,1.7-0.1,1.9-0.1s1,0.1,2.1,0.1c0.2,0,0.4,0,0.4-0.2c0-0.1-0.1-0.1-0.2-0.1
	c-0.2,0-0.6,0-1-0.1c-0.5-0.2-0.7-0.7-0.8-2.3l-0.3-9.6c0.6,0.7,2.9,3.2,5.2,5.7c2.1,2.3,5,5.2,5.2,5.4c1.1,1.1,1.3,1.3,1.5,1.3
	c0.1,0,0.2-0.1,0.2-1.4l0-11.7c0-1.2,0.1-1.6,0.7-1.8c0.2-0.1,0.4-0.1,0.5-0.1c0.1,0,0.2-0.1,0.2-0.1C66.4,19.4,66.3,19.4,66.1,19.4
	z M76.6,19.1c-5.5,0-7.9,4.6-7.9,7.8c0,3.6,2.3,7.9,7.8,7.9c4.8,0,8-3.7,8-8.2C84.5,21.9,81.1,19.1,76.6,19.1z M77,34
	c-3.6,0-6.4-3-6.4-7.7c0-4.4,2.5-6.6,5.8-6.6c3.2,0,6.1,2.6,6.1,7.4C82.6,33,78.8,34,77,34z M98.1,34.1c0.5,0.3,1,0.4,2.1,0.4h1.4
	c0.4,0,0.5,0,0.5-0.2c0-0.1-0.1-0.1-0.2-0.1c-0.1,0-0.4,0-0.8-0.1c-0.5-0.1-1.4-0.3-2.4-1.4c-1.2-1.2-2.5-3-4.2-5.1
	c1.8-1.7,2.4-3.1,2.4-4.6c0-1.4-0.9-2.4-1.4-2.7c-1.1-0.8-2.4-0.9-3.7-0.9c-0.6,0-2.1,0.1-2.4,0.1c-0.1,0-1.4-0.1-2.3-0.1
	c-0.2,0-0.3,0-0.3,0.2c0,0.1,0.1,0.1,0.2,0.1c0.2,0,0.5,0,0.7,0.1c0.7,0.1,0.8,0.5,0.9,1.1c0,0.6,0,1.2,0,4.3v3.5
	c0,1.9,0,3.5-0.1,4.3c-0.1,0.6-0.2,1-0.6,1.1c-0.2,0-0.4,0.1-0.6,0.1c-0.1,0-0.2,0.1-0.2,0.1c0,0.1,0.1,0.2,0.3,0.2
	c0.6,0,1.9-0.1,1.9-0.1c0.1,0,1.4,0.1,2.5,0.1c0.2,0,0.3-0.1,0.3-0.2c0-0.1,0-0.1-0.2-0.1c-0.2,0-0.6,0-0.9-0.1
	c-0.6-0.1-0.7-0.5-0.8-1.1c-0.1-0.8-0.1-2.4-0.1-4.3v-0.5c0-0.1,0-0.2,0.1-0.2l2.5,0c0.1,0,0.2,0,0.3,0.1c0.4,0.5,1.3,1.9,2.2,3
	C96.5,32.7,97.2,33.6,98.1,34.1z M92.6,27.5c-0.9,0-1.8-0.1-2.1-0.3c-0.1-0.1-0.1-0.1-0.1-0.2v-6.5c0-0.1,0.1-0.2,0.2-0.2
	c0.2-0.1,0.7-0.1,1.3-0.1c2.1,0,3.5,1.5,3.5,4c0,1.5-0.5,2.6-1.2,3.1C93.6,27.4,93,27.5,92.6,27.5z M107.3,19.4
	c-1.2,0-2.5,0.1-2.7,0.1c-0.1,0-1.4-0.1-2.3-0.1c-0.2,0-0.3,0-0.3,0.2c0,0.1,0.1,0.1,0.2,0.1c0.2,0,0.5,0,0.7,0.1
	c0.7,0.1,0.8,0.5,0.9,1.1c0,0.6,0,1.2,0,4.3v3.5c0,1.9,0,3.5-0.1,4.3c-0.1,0.6-0.2,1-0.6,1.1c-0.2,0-0.4,0.1-0.6,0.1
	c-0.1,0-0.2,0.1-0.2,0.1c0,0.1,0.1,0.2,0.3,0.2c0.3,0,0.8,0,1.2,0c0.4,0,0.8,0,0.8,0c0.1,0,0.8,0.1,1.7,0.1c0.9,0.1,1.9,0.1,2.8,0.1
	c3.4,0,5.2-1.4,6.1-2.3c1.1-1.2,2.2-3.1,2.2-5.6c0-2.4-0.9-4-1.9-5.1C113,19.2,109.3,19.4,107.3,19.4z M113.9,32.1
	c-1.2,1.2-2.9,1.9-4.8,1.9c-2.4,0-3.1-0.4-3.4-0.8c-0.2-0.2-0.2-1-0.2-1.5c0-0.4,0-2.2,0-4.3v-2.5c0-1.5,0-3.6,0-4.3
	c0-0.2,0.1-0.3,0.2-0.4c0.2-0.1,0.9-0.1,1.3-0.1c2.4,0,4.7,0.3,6.5,2.3c0.8,0.9,1.9,2.5,1.9,5C115.5,29.2,114.9,31.1,113.9,32.1z
	 M125.4,34.2c-0.2,0-0.6,0-0.9-0.1c-0.6-0.1-0.7-0.5-0.8-1.1c-0.1-0.8-0.1-2.4-0.1-4.3v-3.5c0-3.1,0-3.7,0-4.3c0-0.7,0.2-1,0.7-1.1
	c0.2,0,0.4-0.1,0.5-0.1c0.1,0,0.2,0,0.2-0.1c0-0.1-0.1-0.2-0.3-0.2c-0.6,0-1.9,0.1-2,0.1c-0.1,0-1.4-0.1-2-0.1c-0.2,0-0.3,0-0.3,0.2
	c0,0.1,0.1,0.1,0.2,0.1c0.1,0,0.4,0,0.6,0.1c0.4,0.1,0.6,0.4,0.7,1.1c0,0.6,0,1.2,0,4.3v3.5c0,1.9,0,3.5-0.1,4.3
	c-0.1,0.6-0.2,1-0.6,1.1c-0.2,0-0.4,0.1-0.6,0.1c-0.1,0-0.2,0.1-0.2,0.1c0,0.1,0.1,0.2,0.3,0.2c0.6,0,1.9-0.1,2-0.1
	c0.1,0,1.4,0.1,2.5,0.1c0.2,0,0.3-0.1,0.3-0.2C125.6,34.3,125.5,34.2,125.4,34.2z M141.6,30.9c-0.1,0-0.2,0.1-0.2,0.3
	c-0.1,0.4-0.3,1.2-0.7,1.7c-0.8,0.8-2,1-3.5,1c-4.3,0-7.2-3.5-7.2-7.3c0-2,0.3-3.8,1.8-5.2c0.7-0.7,1.9-1.5,4.6-1.5
	c1.8,0,3.3,0.5,4,1.1c0.5,0.4,0.8,1.3,0.8,2c0,0.3,0,0.4,0.2,0.4c0.1,0,0.2-0.1,0.2-0.4c0-0.3,0-1.4,0.1-2.1c0-0.7,0.1-1,0.1-1.1
	c0-0.1,0-0.2-0.3-0.2c-0.6,0-1.3-0.2-2-0.3c-1-0.2-2.1-0.2-2.9-0.2c-3.1,0-4.9,0.9-6.1,2.1c-1.8,1.8-2.2,4.1-2.2,5.5
	c0,1.9,0.5,4.2,2.4,5.9c1.6,1.4,3.6,2.2,6.6,2.2c1.3,0,2.8-0.1,3.6-0.5c0.4-0.2,0.4-0.2,0.5-0.6c0.2-0.7,0.4-2.4,0.4-2.6
	C141.7,31,141.7,30.9,141.6,30.9z M66.1,41.1c-0.8,0-1.5,0.1-1.7,0.1s-1.2-0.1-2.1-0.1c-0.2,0-0.4,0-0.4,0.1c0,0.1,0,0.1,0.2,0.1
	c0.2,0,0.6,0,1,0.1c0.6,0.2,0.8,0.6,0.8,1.9L64,53.6c-0.6-0.7-2.8-3.1-4.8-5.2c-3.1-3.3-6.1-6.5-6.4-6.9c-0.2-0.2-0.5-0.6-0.7-0.6
	c-0.2,0-0.2,0.2-0.2,1l0,11.5c0,1.8-0.1,2.4-0.6,2.5C51,56,50.6,56,50.5,56c-0.1,0-0.2,0-0.2,0.1c0,0.1,0.1,0.2,0.3,0.2
	c0.9,0,1.7-0.1,1.9-0.1s1,0.1,2.1,0.1c0.2,0,0.4,0,0.4-0.2c0-0.1-0.1-0.1-0.2-0.1c-0.2,0-0.6,0-1-0.1c-0.5-0.2-0.7-0.7-0.8-2.3
	L52.8,44c0.6,0.7,2.9,3.2,5.2,5.7c2.1,2.3,5,5.2,5.2,5.4c1.1,1.1,1.3,1.3,1.5,1.3c0.1,0,0.2-0.1,0.2-1.4l0-11.7
	c0-1.2,0.1-1.6,0.7-1.8c0.2-0.1,0.4-0.1,0.5-0.1c0.1,0,0.2-0.1,0.2-0.1C66.4,41.2,66.3,41.1,66.1,41.1z M76.6,40.9
	c-5.5,0-7.9,4.6-7.9,7.8c0,3.6,2.3,7.9,7.8,7.9c4.8,0,8-3.7,8-8.2C84.5,43.7,81.1,40.9,76.6,40.9z M77,55.8c-3.6,0-6.4-3-6.4-7.7
	c0-4.4,2.5-6.6,5.8-6.6c3.2,0,6.1,2.6,6.1,7.4C82.6,54.7,78.8,55.8,77,55.8z M92.2,56c-0.2,0-0.6,0-0.9-0.1
	c-0.6-0.1-0.7-0.5-0.8-1.1c-0.1-0.8-0.1-2.4-0.1-4.3v-3.5c0-3.1,0-3.7,0-4.3c0-0.7,0.2-1,0.7-1.1c0.2,0,0.4-0.1,0.5-0.1
	c0.1,0,0.2,0,0.2-0.1c0-0.1-0.1-0.2-0.3-0.2c-0.6,0-1.9,0.1-2,0.1c-0.1,0-1.4-0.1-2-0.1c-0.2,0-0.3,0-0.3,0.2c0,0.1,0.1,0.1,0.2,0.1
	c0.1,0,0.4,0,0.6,0.1c0.4,0.1,0.6,0.4,0.7,1.1c0,0.6,0,1.2,0,4.3v3.5c0,1.9,0,3.5-0.1,4.3c-0.1,0.6-0.2,1-0.6,1.1
	c-0.2,0-0.4,0.1-0.6,0.1c-0.1,0-0.2,0.1-0.2,0.1c0,0.1,0.1,0.2,0.3,0.2c0.6,0,1.9-0.1,2-0.1c0.1,0,1.4,0.1,2.5,0.1
	c0.2,0,0.3-0.1,0.3-0.2C92.3,56,92.3,56,92.2,56z M110.7,56c-0.1,0-0.4,0-0.8-0.1c-0.5-0.1-1.4-0.3-2.4-1.4c-1.2-1.2-2.5-3-4.2-5.1
	c1.8-1.7,2.4-3.1,2.4-4.6c0-1.4-0.9-2.4-1.4-2.7c-1.1-0.8-2.4-0.9-3.7-0.9c-0.6,0-2.1,0.1-2.4,0.1c-0.1,0-1.4-0.1-2.3-0.1
	c-0.2,0-0.3,0-0.3,0.2c0,0.1,0.1,0.1,0.2,0.1c0.2,0,0.5,0,0.7,0.1c0.7,0.1,0.8,0.5,0.9,1.1c0,0.6,0,1.2,0,4.3v3.5
	c0,1.9,0,3.5-0.1,4.3c-0.1,0.6-0.2,1-0.6,1.1c-0.2,0-0.4,0.1-0.6,0.1c-0.1,0-0.2,0.1-0.2,0.1c0,0.1,0.1,0.2,0.3,0.2
	c0.6,0,1.9-0.1,1.9-0.1c0.1,0,1.4,0.1,2.5,0.1c0.2,0,0.3-0.1,0.3-0.2c0-0.1,0-0.1-0.2-0.1c-0.2,0-0.6,0-0.9-0.1
	c-0.6-0.1-0.7-0.5-0.8-1.1c-0.1-0.8-0.1-2.4-0.1-4.3V50c0-0.1,0-0.2,0.1-0.2l2.5,0c0.1,0,0.2,0,0.3,0.1c0.4,0.5,1.3,1.9,2.2,3
	c1.1,1.5,1.8,2.5,2.7,2.9c0.5,0.3,1,0.4,2.1,0.4h1.4c0.4,0,0.5,0,0.5-0.2C110.9,56,110.8,56,110.7,56z M101.3,49.2
	c-0.9,0-1.8-0.1-2.1-0.3c-0.1-0.1-0.1-0.1-0.1-0.2v-6.5c0-0.1,0.1-0.2,0.2-0.2c0.2-0.1,0.7-0.1,1.3-0.1c2.1,0,3.5,1.5,3.5,4
	c0,1.5-0.5,2.6-1.2,3.1C102.4,49.2,101.8,49.2,101.3,49.2z"/>
</svg>
