<?xml version="1.0" encoding="utf-8"?>
<!-- Generator: Adobe Illustrator 23.0.3, SVG Export Plug-In . SVG Version: 6.00 Build 0)  -->
<svg version="1.1" id="Layer_1" xmlns="http://www.w3.org/2000/svg" xmlns:xlink="http://www.w3.org/1999/xlink" x="0px" y="0px"
	 viewBox="0 0 65.5 79.5" style="enable-background:new 0 0 65.5 79.5;" xml:space="preserve">
<style type="text/css">
	.st0{fill:#F5F4ED;}
</style>
<g>
	<path class="st0" d="M9.7,44.4c0.1,5.7,0.8,7.6,2.7,8.1c1.3,0.3,2.9,0.4,3.5,0.4c0.3,0,0.6,0.1,0.6,0.4c0,0.4-0.4,0.6-1.3,0.6
		c-4,0-6.8-0.2-7.4-0.2c-0.6,0-3.6,0.2-6.7,0.2c-0.7,0-1.1-0.1-1.1-0.6c0-0.3,0.2-0.4,0.6-0.4c0.6,0,1.8-0.1,2.9-0.4
		C5.2,52,5.5,50,5.5,43.6L5.6,3.5C5.6,0.8,5.8,0,6.4,0s1.7,1.5,2.4,2.2c1,1.2,11.5,12.5,22.2,24c6.9,7.4,14.6,16,16.8,18.3
		l-0.8-19.3c-0.1-4.5-0.6-6.1-2.7-6.6c-1.3-0.3-2.9-0.4-3.4-0.4c-0.5,0-0.6-0.2-0.6-0.5c0-0.4,0.6-0.5,1.4-0.5
		c3.1,0,6.5,0.2,7.3,0.2s3.1-0.2,5.9-0.2c0.8,0,1.3,0.1,1.3,0.5c0,0.3-0.3,0.5-0.8,0.5c-0.4,0-0.8,0-1.7,0.2c-2.3,0.5-2.6,2-2.6,6.2
		l-0.1,24.8c0,4.6-0.1,5-0.6,5c-0.6,0-1.4-0.8-5.1-4.5c-0.8-0.7-10.8-11-18.3-19c-8.1-8.7-16-17.6-18.3-20.1L9.7,44.4z"/>
</g>
<g>
	<path class="st0" d="M19,55.1c0.1,5.7,0.8,7.6,2.7,8.1c1.3,0.3,2.9,0.4,3.5,0.4c0.3,0,0.6,0.1,0.6,0.4c0,0.4-0.4,0.6-1.3,0.6
		c-4,0-6.8-0.2-7.4-0.2c-0.6,0-3.6,0.2-6.7,0.2c-0.7,0-1.1-0.1-1.1-0.6c0-0.3,0.2-0.4,0.6-0.4c0.6,0,1.8-0.1,2.9-0.4
		c1.7-0.5,2.1-2.5,2.1-8.9l0.1-25.7c0-2.7,0.2-3.5,0.8-3.5s1.7,1.5,2.4,2.2c1,1.2,11.5,12.5,22.2,24c6.9,7.4,14.6,16,16.8,18.3
		l-0.8-35.5c-0.1-4.5-0.6-6.1-2.7-6.6c-1.3-0.3-2.9-0.4-3.4-0.4c-0.5,0-0.6-0.2-0.6-0.5c0-0.4,0.6-0.5,1.4-0.5
		c3.1,0,6.5,0.2,7.3,0.2s3.1-0.2,5.9-0.2c0.8,0,1.3,0.1,1.3,0.5c0,0.3-0.3,0.5-0.8,0.5c-0.4,0-0.8,0-1.7,0.2c-2.3,0.5-2.6,2-2.6,6.2
		l-0.1,41c0,4.6-0.1,5-0.6,5c-0.6,0-1.4-0.8-5.1-4.5c-0.8-0.7-10.8-11-18.3-19c-8.1-8.7-16-17.6-18.3-20.1L19,55.1z"/>
</g>
</svg>
