<?xml version="1.0" encoding="utf-8"?>
<!-- Generator: Adobe Illustrator 16.2.1, SVG Export Plug-In . SVG Version: 6.00 Build 0)  -->
<!DOCTYPE svg PUBLIC "-//W3C//DTD SVG 1.1//EN" "http://www.w3.org/Graphics/SVG/1.1/DTD/svg11.dtd">
<svg version="1.1" id="Layer_1" xmlns="http://www.w3.org/2000/svg" xmlns:xlink="http://www.w3.org/1999/xlink" x="0px" y="0px"
	 width="18.714px" height="22.68px" viewBox="61.522 0 18.714 22.68" enable-background="new 61.522 0 18.714 22.68"
	 xml:space="preserve">
<g>
	<path fill="#0A0F06" d="M64.29,12.666c0.028,1.627,0.228,2.169,0.77,2.312c0.371,0.085,0.828,0.114,0.999,0.114
		c0.085,0,0.171,0.028,0.171,0.113c0,0.114-0.114,0.172-0.371,0.172c-1.141,0-1.94-0.058-2.111-0.058
		c-0.171,0-1.027,0.058-1.912,0.058c-0.2,0-0.314-0.029-0.314-0.172c0-0.085,0.057-0.113,0.171-0.113
		c0.171,0,0.514-0.029,0.827-0.114c0.485-0.143,0.571-0.714,0.571-2.539l0.028-11.44C63.12,0.228,63.177,0,63.348,0
		c0.171,0,0.485,0.428,0.685,0.627c0.285,0.343,3.281,3.566,6.333,6.848c1.968,2.11,4.165,4.564,4.792,5.221l-0.228-5.507
		c-0.028-1.283-0.171-1.74-0.771-1.883c-0.371-0.085-0.827-0.113-0.97-0.113S73.02,5.135,73.02,5.05
		c0-0.114,0.171-0.144,0.398-0.144c0.885,0,1.855,0.058,2.083,0.058c0.229,0,0.885-0.058,1.683-0.058
		c0.229,0,0.371,0.029,0.371,0.144c0,0.085-0.085,0.143-0.228,0.143c-0.114,0-0.229,0-0.485,0.057
		C76.186,5.392,76.1,5.82,76.1,7.018l-0.027,7.075c0,1.312-0.029,1.427-0.172,1.427c-0.171,0-0.399-0.229-1.455-1.284
		c-0.229-0.199-3.081-3.138-5.221-5.42c-2.311-2.482-4.564-5.021-5.221-5.734L64.29,12.666z"/>
</g>
<g>
	<path fill="#0A0F06" d="M66.942,15.719c0.029,1.626,0.229,2.168,0.771,2.312c0.371,0.085,0.827,0.113,0.999,0.113
		c0.085,0,0.171,0.029,0.171,0.114c0,0.114-0.114,0.171-0.371,0.171c-1.141,0-1.94-0.057-2.111-0.057
		c-0.171,0-1.027,0.057-1.911,0.057c-0.2,0-0.314-0.028-0.314-0.171c0-0.085,0.057-0.114,0.171-0.114
		c0.171,0,0.513-0.028,0.827-0.113c0.485-0.144,0.599-0.714,0.599-2.539l0.028-7.332c0-0.771,0.057-0.999,0.229-0.999
		c0.171,0,0.485,0.428,0.685,0.628c0.285,0.343,3.281,3.566,6.333,6.847c1.968,2.111,4.165,4.564,4.792,5.221L77.612,9.728
		c-0.028-1.283-0.171-1.74-0.771-1.883c-0.371-0.085-0.827-0.113-0.97-0.113s-0.171-0.058-0.171-0.144
		c0-0.113,0.171-0.143,0.398-0.143c0.885,0,1.855,0.058,2.083,0.058c0.229,0,0.885-0.058,1.684-0.058c0.228,0,0.37,0.029,0.37,0.143
		c0,0.086-0.085,0.144-0.228,0.144c-0.114,0-0.229,0-0.485,0.057c-0.656,0.143-0.742,0.57-0.742,1.769l-0.027,11.697
		c0,1.312-0.029,1.426-0.172,1.426c-0.171,0-0.399-0.228-1.455-1.283c-0.229-0.2-3.08-3.139-5.221-5.421
		c-2.311-2.481-4.564-5.021-5.22-5.734L66.942,15.719z"/>
</g>
</svg>
